<mxfile host="app.diagrams.net" agent="Mozilla/5.0 (Windows NT 10.0; Win64; x64) AppleWebKit/537.36 (KHTML, like Gecko) Chrome/131.0.0.0 Safari/537.36" version="24.9.1">
  <diagram name="Page-1" id="57W-dgsir2CyAVGh360T">
    <mxGraphModel dx="578" dy="555" grid="1" gridSize="10" guides="1" tooltips="1" connect="1" arrows="1" fold="1" page="1" pageScale="1" pageWidth="850" pageHeight="1100" math="0" shadow="0">
      <root>
        <mxCell id="0" />
        <mxCell id="1" parent="0" />
        <mxCell id="3gMO2fTf6Yk1133USG36-19" value="" style="group" vertex="1" connectable="0" parent="1">
          <mxGeometry x="160" y="70" width="500" height="170" as="geometry" />
        </mxCell>
        <mxCell id="3gMO2fTf6Yk1133USG36-4" value="" style="rounded=0;whiteSpace=wrap;html=1;glass=0;shadow=0;dashed=1;" vertex="1" parent="3gMO2fTf6Yk1133USG36-19">
          <mxGeometry width="500" height="170" as="geometry" />
        </mxCell>
        <mxCell id="3gMO2fTf6Yk1133USG36-3" value="&lt;font style=&quot;font-size: 16px;&quot; color=&quot;#ffffff&quot;&gt;&lt;b style=&quot;&quot;&gt;Web Scraping Layer&lt;/b&gt;&lt;/font&gt;" style="rounded=0;whiteSpace=wrap;html=1;fillColor=#f88e2a;" vertex="1" parent="3gMO2fTf6Yk1133USG36-19">
          <mxGeometry width="190" height="42.5" as="geometry" />
        </mxCell>
        <mxCell id="3gMO2fTf6Yk1133USG36-14" style="edgeStyle=orthogonalEdgeStyle;rounded=0;orthogonalLoop=1;jettySize=auto;html=1;entryX=0;entryY=0.5;entryDx=0;entryDy=0;" edge="1" parent="3gMO2fTf6Yk1133USG36-19" source="3gMO2fTf6Yk1133USG36-5" target="3gMO2fTf6Yk1133USG36-8">
          <mxGeometry relative="1" as="geometry" />
        </mxCell>
        <mxCell id="3gMO2fTf6Yk1133USG36-5" value="&lt;font style=&quot;font-size: 15px;&quot; color=&quot;#ffffff&quot;&gt;&lt;b style=&quot;&quot;&gt;Expedia.com&lt;/b&gt;&lt;/font&gt;" style="ellipse;shape=cloud;whiteSpace=wrap;html=1;fillColor=#7cb0f4;" vertex="1" parent="3gMO2fTf6Yk1133USG36-19">
          <mxGeometry x="20" y="66.18875" width="150" height="85" as="geometry" />
        </mxCell>
        <mxCell id="3gMO2fTf6Yk1133USG36-8" value="" style="shape=image;imageAspect=0;aspect=fixed;verticalLabelPosition=bottom;verticalAlign=top;image=data:image/png,iVBORw0KGgoAAAANSUhEUgAAAOEAAADMCAMAAACyXzSgAAADAFBMVEUEBAQDAwMFBQUEBAQFBQUDAwMDAwMBAQEBAQEAAAAAAAAAAAAAAAAAAAAAAAAAAAAAAAAAAAAAAAAAAAAAAAAAAAAAAAAAAAAAAAAAAAAAAAAAAAAAAAAAAAAAAAAAAAABAQEBAQEBAQEAAAAAAAAAAAAAAAAAAAAAAAAAAAAAAAAAAAAAAAABAgEFBgUGCgYKDgoODw4LCwsSEhISExIWFhYaGhodHR0pKSktLS0/Pz9VVVWFhYW3t7fn5+f5+fn7+/v6+vr4+Pj09PTq6urW1ta4ubiYmZh0dHRaW1pISUg1NTUuLi4sLCwrKysqKiorKysqKioqKioqKiotLS0qKiotLS0yMjI0NDQ3Nzc5OzlMZUxZlVlfq2ArsTMrrjIeaB0UFRQbHBsfHx8jIyMlJSUnJycoKCgrKysqKyopKSknJycrKysrKys+Pj74+Pj29vby8vL09PTw8PDt7e3s7Ozq6urm5ubm5ubj4+Ph4eHg4ODe3t7c3Nza2trY2NjW1tbU1NTS0tLQ0NDOzs7MzMzKysrIyMjHx8fFxcXDw8PCwsLAwMC/v7+8vLy6urq4uLi3t7e1tbW1tbW0tLSysrKxsbGvr6+tra2rq6upqamoqKimrqampqalpaWjo6OioqKioqKgoKCfn5+dnZ2cnJyampqZmZmYmJiWlpaVlZWTk5OTm5OUspSVu5Sby5uSxZGNxIyIvoeCvIF0wHZ8s3l3rnOCo4CJnIiRkZGPj4+NjY2Li4uJiYmHh4eFhYWCgoKAgIB9fn18fHx6enp4eHh3d3d1dXV1d3V0dHRxcXFvb29tbW1tbm1ra2toaWhmZmZkZWRjZGNhYmFgYGBeXl5bW1tYWFhVVlVSUlJPUE9NTU1LTEtJSUlGRkZERERBQUE8PDw5OTk2NzYyMjIwMDAtLS0sLCwrKysRIhASMxEXRRccVRoldR4neSAngiMufikpjCgrmCsrpDAssTMttTYwrzg9skNBjz5QmUxTplNhoV1buV9sq2kAAAAAAACvFva3AAAAb3RSTlMDBAcCAgECAwUHBwkLDQ8TFhodHyMnKzA1OT9HUWZYW0xoeHyMmLK4zeDz+f37tvr8wYOOsahjtHRoUU1kcyYtGxIKBQMDMwMAAQIDAw8nMjQ3OD1AR1dtd3+Gveb5/v7+/vz+/P79/f3+6tOY+OBrnm7mAAAf50lEQVR42u19e5hcZZnn732/c05V9aW6O+nu3C+EgEYEAiQIgxMIUcLFB1ARdd3ZccWHGcLIrDzO4yyEpDsQdYZxx92VzLjjI+vOqjsiBEEgyHTEEUEEknDTQAi5h9BJp9Pd6UvVOd/37h/fuVV1J3ZV6KDz1El3UlWpqvP9znv7ve/3ft+hy/Hv/GDUENYQ1hDWENYQ1hDWENYQ1hDWENYQ1hDWENYQ1hDWENYQ1hDWENYQ1hDWENYQ1hDWENYQ1hD+oSEke9iH9hegf0cICSIQESIi37e/RHLiGPn3ByAgAZHv+wCivxJp/qEjJAERBSEyCADxAd/3QQCdCEj+/TDBSGwARKy62gfwAV9E3i2ExBxdXyIiZmbHcRzHYXtQyn0c3wTJd+FDUIZFxOoqVa+rVH0vBikE4xTR6OtoAKuLAAFCvuvbF4D4X0r/4wpITi5Cxxi4lNkriwAAzwOEWRAYEWPHGP4VHPcq2TdpAECQoEManWMELoQgJw8hAeLm2oVvS7nz5Pydri4TAZ63D2dBIKJFYJ1n6dcGMhoEiVLkA3Crg1gdQoZxD56nV1GHJgYLKBwyUgGM7DtXo2TY9BUAuiSaEwD0AGZP+7BPXkFKRci5fTOLWgA41ShqVQidwOk5Z5VZE/BKf2ioEGgoZnYdVoo4dD8EAhGI1kQ6aIdMdtzlyMPHcvehXfVBiahU3c4Xz54uulopVoOQjTd7pazxO4907+j1OR2TrUMlJlauYtVEipnZUcSkmCgGT0R0pzYJZl4VhgjI1w/tyliXSgBU/o0Xcda8QtUQq0DoBPnWOzrN6oMvdfsOJ0QSDBBCokWl3oKISJFiJlJ5K1v7w8SKmYiJyfEYREaA2w/6IRBu/e1LPV+697z2IoGqglg5Qjb5Kbd1mi/9sscoEhDZS09EAFMqBDJSuAFAIjItIoCBQKxdmVBNyambPtnzxAB37GHDAA0P4me5FS8WTytIAHJ9d+JlyCY/5bY1Kw88VVAQIhT9ohYxYFjLYxv7QUwWLlsRkVKKKVTpMLLH3MUINERERKNhbnudEVp1sGjYDP964cbsinU333velCKsECfaDp2gYdptHatefwEkIBkaDgISAGzKgpiAyUovlGVkflYlmchKnMmKXwASIwLt506b7mkyn3e8w8+d83NnBeSeoUtPKxQBmniEJO7slZ2rXn+OISTDg/7oFK7suRwjnKZJN0DMruNmMkoL4JvM2W0Cc+PgpoNZtUJA626+9+zpkSVONMIjD3bQZ58ChPyBEcKooaYiIh2PApvSSyAQGJXN5nJGQ4y8f6bUfWzzwb8KLZX+dumCwSIB5EqFMZErBOgtFvOXzwBCI0cKsVuhOAYA5Xybmcc6T8jNrdkSiJgdGu59u7vIxoBefLrho0HPlyKA67786jabe/iVBv3KECrMvn3Nqk0+hIb7NJcnQAkuTg5jQfIxzsTMHGeAzGbgQJ8AGovnYFEu4jByk3TrZk8AuJVmGRUhpMAV8bsPMKhwFIS0AEFKcSKZsc9ApUfMyziiDQIyvYcl4I+dvfDJe25KrHjdl1+xQvQnND9UyK1c07lVE/wBw6P0LfVtCYJySGXFJ6R0OaxY0MiBzCdP7f6FtyL11puk2zSzQCqGWAlCMmgXf6CbRY7KWPIqU9Wxqg+jEUdvMhH7Yb/tlRkH69SKe9KfW/fll7c5E57jG1eAngLRSEAlyRFFI00wJXXBiKFF/xs7JkQ0nAhArKmFs3/7v3oauAQgZIU5qBs9gUTcaCKiBRt3tln5youOOaKPkzj+rsSyPFwm2bKBkAmuuUU9mREDACtSMtRLNp/XXiRChfGi0mihg52KRvRYJhW5ffskjgJU7nHTeozIEik2hM9esvhXmVFnXlf8482L2oqAVBovuKL30h2iB9n40dATdwrEyJgJpToYHkwps0u5ngQi+7k/P3vFP3L0fF0k+H+4eYlZ1GSdjDuR8ZAADRYdIYtgERFFoT5MdBMxxgoZpCpmSbBI/ClUccpNp+76nxwjXhFqDg3di/c1VVdTrLSaSBriC0Vuhcr1Lk1wYudDAFi3zgk4rjsmWWVKR4dPf335azNTr6yzJnjP3a3n5rsjnudXNp1Rcb3UJwSJgKz2cVkkZ5snciweIjLOdd+a6jMAkdg+KRmsEApX3COb3hh1TdcFQ23ntrlybCL/DsuQYDis/nI5tlhRY+OkqGSsPz5r8yvN6ZpHKUTW5tOXXfDtx8fwMUvav9A2Yk5ezZsgJb4wrZ5lPiSRExfPWdi97Z8+k9GjThhW6IqZGxbvufaxsrhC6/7h5mbzmZcLxCcNoU3TR6kll1OzVOwAVHHahoWTXn155n+AobjERhRmDiAuttx4+rYt5YK6+Z6bh+5d2LRv/PH2nZEhjaJf5XERsTjtT1B3/Xe+8wht33raJ4P0KUPbIirM2T5zy29Kxi/Azevk7tbPNarflVC/8whH8c3RTDOJGyBAPjH9N/sY2Lr9zI8UknFGExdSOPfbsmFn+lvFADevC4YuvfENhTJ+ONFaamN3qY+xVSgOyzBJOcbKkIuXvXfbTgIRXt590bIRknC+VwQgkAmu/eri60dsYfKKMCG8GVg3sqT9sZuqld0JzK6xFRGnD+KwpGT9aciirQC5cPp/2XVqGDs2rbjstCKLiImjRMCfvegnV0YVEQGg5SYAdPMk2r6HUuOkk+Np4lA4dk6UeoVtvAiaL39kRuSG8aEbnm4vEsKiKYSK9Tcu2LYp/XV+oPHNe2To3s/93a4sjRKhO9Ey5BJvOQpW6XMmEvrE7UeA5ZYEgK/fvLXRD3MKESpM3T17y6sxYb0C8APgm2SGW/df8ryXRInYDP2JliFSxkZjpPAUW6ONA8G1p3ztVBiEdkrD33j2TzxNIhAhjJz58nNP7UxCJ1AMAJBe0rb9u2/liBUACI+jRPlOehoeO0ak3Q/HMJmAIQ0stxCN9H5r1p/YEjdM8aq78bVDSNJjPawB/MVfLNm85TuFLFxl681p9uNWlgFXES1iVpZyNEl+wbDEOs493IfebA+GtMFygIkU01svz/+UFoC0/MdLHv/IcKgYAK5YNiIQ4Ov30pP/wg4UMdlGlJih08T7UnUcLY3SwUgjrf9c/+dtekgbLCfYALJ921lXFUF+9oazdj/LEUDC5QUfEJKRyTfc8liGoWwZKNRRqsrRVIowtK2EppV4mDBuhMEwet0ZOP+cS42FGIbJV3YvObdYaL3x1G2bUmWby4YCAGSGW/edsa0ORMyK0sKLUmqZWE9jwSEFitOuhkHhSxxOuoi34+9f+pAMaoPlIFZErJ4/8DennLJ1+SuvpjLID48AAPkXt2//zuFMbAggLgUoEx4tOGI1nJadlR9zXKvgeHpNsk++sjmgECKYiJ0ti57/pxf+9xuRQ2Jc+aERAMAXlm7e/F3fCzmF4mS6tcqGmmo8DdITFWmnWjKHYcVtMbsP7W7XNDhosHw5ETPY/1Ocs2mPihwUfjhYIAhQuJc23q8ciWbLSytVBGBiZ2YAq2bpNDelqal4Upp7sH//Da2G9KAxWG4N7MifffsRFadeH/qmQIRkpPWGW7o8SiuKpBQUgDvxWlruXo7xNCm8MZFk+pYuXHYr6UExZvny5UTk9GxQoYxx+aVDtn4w0rbv/dtzkQEwK0KJi6nck1YV8XlsMkOlLjWUsnW8SjJvfHPLFiE9ZGAMli9fnqJ4lw0OMwC6ZWn7G9/tzSG8NGzVJelQIbiovOG0kpq3E2T/cfUXXwp6zPE1hST8gYjtNRQR43/qPQcdiMqVTycGQ2AAVFy2ZdPDcCSeGfcmO4uz+HRjgeL2jip6hirX0iYQs0odkSziF1gpJisAm0oxEbFav79NA3rQADDGhOmT8YfAxgCFybRxvXLCMBi757iqEAI8CVoKLkvxy+egQrgEZqWs02Fmcv0HP9dqCDKoLTpjjDHB4BBgwKbQ+vkv/iwbqicxEbPi1CRjBFAmPlpwCSUti4hcGiWJWNnREsM7+Kmzlt1KkCGBMcaIAHrIEAAOim17z9yeQznXjQgMEVy4gJyUOg2XVdmSYDFmcZgVW55D2Wfu3fI3AsignW4So4eEAPBfXtq+7Z+PZJF8G0eXKIqDru/KyYn4RHkqCX8gEl3QAijoQkFHsSwp2HDIbzi74c12TQAGh0UEMjxoOZi/2Wz+gfYQw2OCzSqIALgEuL4jdLIQWvoZy4+MyZ1+zgc+cMGFF1zwgcULp2a1jjOscLy2HYrB9OMVbZoA6BFgeEjbMQeTz/3vP3aciMVwFG+Y8lhD00NHXmWLcNWsLWZuohZc/MF505sachkvl2+bsfCipWc2kiS6bGWimFhRZmjx5y41FuKIth7EFFs/v+TfskzMzIrYujLFljuFPMYVqhJgVRE/lfCKd8aSudT95uP3/b8f/N9//sGPHvzXNw/6My68cD4Mx8XT0DEyMbL7/hTLhABobd3GF4P2vWfuzlKKyChlwwXyYaj3q2wPrlqGiXj05AtmDT/94PpH3+wZGCwUB3ve2vbo+vWP7/JOvXCySQgrM5NSipmRe+r7WwJJ6i1mc/u27x3Nwl4BttKmMMsMUyXlClW/HqG6Oo0drpIF56in73/hIHkhHVeKPep77bH7d2XPXQBWNr2zTpbZYWLKbNjdrmMnpZeaTT/UHlR4JewXR7Q7KrAJndT1FgwVzpsF75098Mjzg6qE7guUJ4ceebh/1nkM23QZDp9IOczKPPr5NhMy2aB10TcedT1S4XWLRR4+oGqnY05UhoqVIhWcPqv34d1KjbIQgcK+B/c0L0QkWlZMpBSzw5TpW37O0lsJIAnaPr/0mZyyWZJSTsLxCAAp2Ih/QktmqpChw0zM5Oi5M49uOOKWh5GoXjXw2J7mM62iWvWzGB0HuR3femmLEN26rH3veXtzFAGMmRriQk9IE3FyZWiDIZMz3TxxSEmcTwTa1zqZtFYjT3S3zg1YsUUZQiDlct1T2zZrmM2bt913NEfErBzlqDDS21Z/kLL1kBMSX9WsjYmIzdy6Pfs5Or/2sy2Tp7U2kh+v7HGOPjE8LYfQwJRSFHbsM3tPvNXmLzNbHoJHzI5StjwV6iizpexhW7WcfIQ2FDrtI79MOqOmX/Xxj3/0mo9+9LqL8tFVF/fwc857YFMg2+jtKIdJKXb8jZ9rP/eeroyrlHJZcZhHMIXpCCsiUmFz9MlGSMohIkZbdu9APDn7vqvnN5Ie0XWti66/IBcGA6GtR/JTDEcJOxMrUg4TU67nP9/46efrrPnFXNSxuaZSzGBmRe/EItmq5oCZmaRZthVD4h/MX0J7Nr3w4itbntv0Fi2+PBcmtzT0C26mSK2ZlWJHkXJZUfbV87fVW/YSFSGVCpPouMMf78hRlZYyMxqHelTkVN6v9u1GxvMynt7x8sDMyz0QtBZuay9MmhyR6RClq0gxkSNeMp2qlHIcpZSiqOrK41i2OHHxUOXz+bzrjgyHTkDX1/sHMjbZUa3y28FZ7/WLqJ963qeuP9/x3XS6zGR88rK5+jqHjDiuq6xxKmt9UaWAyjo5T7IMLaNuoYJPcRkDlM/nm/L5fB5NtF/OnD7/w9d94o/yweE9L/Y05fP5fCgurWadcfZZZ5199lkLzz1jnhPAcRzlKCchMSku+27JEOwQGA4FEbtUgyPelL7YbJp6B5o+ctV7Gwb27n51e7ElDwDI5/N5yOT3nTur2dHDvQePitMya/HCRsByugiXNYLQX/O7pKVgh+NlLpY+v6intR2RaJBNPXD7d+448JbfPJmTGYD+ltPnNQ3s6Lrve//y4E8e+OEDj7040HjWgjpwFE9iE4wB0rvhSxlMDGYjKvqo8LbdmTmnZY0Rm3no3TvfLoCbOT3x1tc2Z1J/1/qfvNFnRET8/v3PPPT4weYzZxvmMB7azAyxK82/W56GswQy8JLKkDz+08GmOadOzTFEwKyVo5KiGwCQmT6bnrp/62CUZ5FiZ2jnoxsLM04XG+FtbIwVFu+algKUJWYJ6uuT0pC/9b6f7R5qnDNvVmuda8yoqQw2LTMKP908qFTJ6lCn8PrDh1rfx9QEonw+n88jbw+8YwCryp48V8DDdS2pxa9q8MX1DzzydLeaPHPWrMlKp2YliJlNXfvgw9vDhdsQbQJty6B8+NHd+dMF+XyeAMSKmc/n83i3ZEhQWRAP8/x0AZM81ffGcz/+/kPbh3jS3JkNcQs0AYA7zX9iX0gQNDXNXHDWtKxdVKAGntibn9MfdThwsoUB8kTvzt4mTFzPoGF/TrMuTXs9KvS9+dj37v/VQW/a7BZIrKgylZ/dEzX5Nl35yWsuvfjaz5zvBQBEDf98sL1dkvwyBsr8rnkaZOrB0p+7UJXn9sQKQfczD/z4t4VJMzwJF5BIQ27fS1GaNf0Tp1Chv8/3zr+iSQMQdfhJPYVGxXiKyzT26Dq52VOjghrwT3mfGUuNlFfc9cR9252ZkyPm1ez/umhPpBs+3HBk7/5DPfv3DM25JOx32rk/mxPbu5GaIkBCvTdu3LiRNm7s6urq6jpJCDNNYPTwB08zZgyIQh6OPLqhv2WyMEDSkOl5y7E6qs7I9/eQ67ou3ipMnxbYFvDnpYVR3vbH8cz2o1HkYSJ0dXVVJtBqdJ0gDQ1GFXoyH1rkjbk+SKDw2kOHm5o1E1EDng53h5C6s02vsubGvdlzPYv70OF6FxR3slisEaPg2DSjGZCurkogVhMPQaCmrGSGe5yLrp0OLWOyK+/w40cnNRoGZ4aPhK+ZZm8kIuw07LdlNQA4I1uooWzJEHFcIUGDY0uSKqy3x6KcsGgBELjF892h7pFp1149zdPFMeaFRL39xMhkV6Dcg6EVkpmitKvYlpjMSC5sedI9hbqSZImIVMxKf27ZjgpJTwxyQrUUgDu5znf1wcM097prF87yiqO1VXjnJm4G6mhHgcNXZnHDzGkzZsyYOWPmjOl1qsF20fLgcKZs3Z6KO4V2uSo9/6oYcfvCROUWNpiLaslDuYNv95ppS6+57sqZjmhdng28NlTvIBv0hvAlW3y7p3+4UPADrYX9Qqs9vTo6wG56rxNSiY5C2a6BuO1KhX1E41TTSnsxOu8oJi+MDPkgAWfrXAmG97/cXxhByTpPWXTRwKGpvH5/RH/sinZFtr7mjlgDpeIHFx/uZyBq32cOC6Vz7+q8Zoey6yolausQgRGBXDqBdhge2ZZGV0Bm6O23j0rDe6/79OVnTKP05gqyfbCeHO1z4mQBiF8cGRzo6+ne1xOJ6Yh4yTIOdkqWZDhZFRli0hQx/kLjCe6EVdfcUs/Mjuk7cLB3OHPq8muunp0omHBfr8qwTqbT0pP/juNEtSz4kgTEqPcvvJo6XHGs0i0DPH5DrCZapGKzkNswqTnf2JBvcs3wkSPDuVOuvrYx9jpULAqR1vH1LhaLRV9rHQRB1FJDRCRFicOeUmVjckg54exNqq11Qn1poqvkeF9bq9xMrr6hsbmlualOFf3c3MvqEwXqpjw5caOPzJo/Z9b09tZJk5ry9dmMxwTtF4tFMyThfBO7jorXR4dBlIwRUg6lF3bwuCFW7mn8mBmvCaDu8D01kp6CNsjJz58NyQrp91whVPxRd5gZ6o/PMkaMiBhjjBYTiIEREziz+S1Pou6ZIHQ4QnPu6ri6VwhAEWAtIsaICX8n0NOQs/auzg7661tvuP6xBw+tpNTUmhAKHXNSmaOIcTOR2rL5Cik3k83V55snt02dNnPu3Hnz5s8/bcH8DHlJGC9ZCq9tDcfzYBSVNUlNBEIBiGTVHV/87LIH7/vh+oe37tq6JhJYODiD+roIoWlQIk4uFjCtHh4Y6O/v6z3cc+jQoZ5Dhw739h7pHxgYHBxMpWKqZBFXtE7Mg+GxlpVNiB2upV/+eNNr+/vFU85rA3c4qT5eAqMwHHuidhJZkwlHT6YgDrNi5TiOUkwEE/iFoaGhwYGRaKceALpESvGyYg/phmGZMIQEULB6HiHjKohQ/8bbOkIzs5t3eJ27i5Fn8XKd2mCmEwX8fVrFi/JgGic1NzflGxvr6zKekgSTKunsjheGA+FmHDLBMiSCodmN2oSwtv3ryo6vWkIiEGQ73/5NiIhMc2uHMatmhIYo3G9U1ANL4qqjvQVys/WNjfmWOkkt/VHlJ6T0BZaKMHJ1oUL9tw/En1SvP3rL7Z1rM45SjpNdi1s29MWOvrXRh+iGluiD3UcdJ9qKTRx6+b7v/5/vP7Dhme0DDLFbTY3aViKULZWwIhiZME5jfdnK4ryWOL2nN3/w2J/9VVGtufNOJ/jCU/d3R19q6s7pDAjaOT8yxKP/FtTZIhsJZ/WOo/193bte+9WTWobs7mXl2y2m2Q0AE/Ucj3+Cv0pOA+/uJV4CMfjN+vvuf/CPL168/oEHnu6PdcycOm2VJi7KjLBeAd65W+WVgYhBo9pxyHWUUmSmthTiRd6SeNNRZJijladGJkRLDWRtR3jG2/S8hZTkvZ7fs2vr5s2vvLaj30sanlr+6K4CASj+7SUNFiLpJ97Q+cas69W1OG91+SQCmPrFalhF65tS+2hRqa5G+9Nae5dlEyFD0egM/UTnqgtPE0OpaqmnyPO8pP8kaLi8+XZDABf/69SLI3c7+JOfHgwy+Xrv6KuPDIa7l85rKxTLFsKq0YHY7tMX5U8yETJkCCVbH921Zvk5bkDJVRaku5coyC6fqe0eazSC0+dHk/vy2x898MjPHn/4gQ2204HMpAt5kI+TpEUQiywiYkSMwbhFWBHCDV1JEk5k7lxzyfJ8MHYZihA0XzUXhSgwjHztkilR4qiG9v7mhZdeOxQylyD74fxQZKYxY7NBPy4Kh7Q2cjOVNBJVpKXaJ7ixnZg7Vy/45IKMr0dvuydFmv+J+TQSWRMHX266+tTojeR55Hoq/JbM0unFQbs7TWrYChASl4kF1vSkyJCQtguwbAIQdjHw9trbOyluiuxc+fUrP7agRftSaqzFzClXXvX3/khqM9lC4X9csYh17Dciffazy99j+uO9sEq31RKHeFXqAidGWIEMx589dRH5qP9Pd3SsTm2DzHdgbe+B1w8NBMkGzpn8zPe03eX8dUARPxMIxMkFO3910BiVBG8NNW3JVN0n4Ra0hkzMWDSEgpY2ueO5gtXNIgeijTbGaBGzbGIQcsG5cWVHh8TMEgLqDHh1sdA73D2glevx1Ek5z1t1l6+FJBquBUl1NNLz6wOFwEAJQcPNNC2enS30R5cBBhaiWIlRMPXujlVPh0IrimhjtDEBjMhEINxIRA4tnbGqowMSDR8QIV5twEQdQtQJY4RX+8l2j1EyCwg8l4O+AwcGh0Y0sdfQfPokxwwNM2IZgkzMOjWMO23t6tufKROhNhUBHD/CLgazYlnwYEdHNOYIY5TDmWi7VUpJL8YpEDius6YzCAqGyPWUDgoFo0xyJUwJQp1ft7rj2YJd1g4xxmhtJBAZZ3ZfmafpIjAYpN68s6MDnanVVnafGaODYsEPgkALcdkGSfFjomB44NajReQa63Nc6OsbGAlnvku3HY44WhNgClHebSsYYiptGR6vDDeGS5IU5n3g9o6OTqyWUkGmftNPIiEmTyURGRBRsLHUtNj6jU5cMRzqaKShukIRjluGEtUS1K5n13Z0rA7Z27ELJmNsCB2XsMJVJhRVsKjsbQIAfl0jzG0JQCNiomgxAQi74p2FkNv7dEcIkcZbExqr7CBl16HscgRe652rO58PKahEOlpRsK804od9Z0Xv7RfWru6Q1Z00hsiOs6swlWA77mgI2p2ytoN+PSIiBkXSYuwhlSROFSDsSl9p3+l++s7V6Fh9zL4zOj5KOv5HCJCgbsraTtw+CBFBkbRoY0yY+FYmwnF6mi67p7qdPSByg7YL75BOdMRuIuVVkGx+nPgiKf//xOvAIOVqyAASOPnGNR24/SlBCNDoUISVsJmKEaYaYVXgTj5/JQgdCJ0qSrxlPORUPEzf8iL5QLQcOmI1ZES4IfdVXtWpfjEskCJIiwkRilQU7KuQoV1MQKSME7iTF5sOAXWkd6tYXSbF1OCTu8ek0Js4YwcMwYDFzWW/qjvxlWf6BIIiRyYolZKZqmRIyTw6B3Cb3UUiq0VK71SBzihTSFm5AOiIgIcJUfjHVm1EBAx2XbXG0Ko16pk+IRRB2s5xGDG6GglWiDBatExku58AtCkwFqVKSIDfMdZOuOnnySUY5VyJV4t81Tx7mMQH24Q+mompCmAlCBGvI49m8FjBCEAGDkDNpWA4EmGCX8XbWHWUAEsjpA5+we8NHBgxAglnmsQYg6oAjhshKFr3SNG6bRCifSoCPk7QMADi6f0WRPcoKb0ACAu/zxt9EMzQYdHJ2EAvxlQRKCrhpV1sG6ApXOGD9H4VgHfMDwbjjsuJgOHYOz9FdScLrzoJjluG4VZOnN5fFiUJxpihfMxeqWOcww8VooioMCMhE7UFKFQHcLwIl3XZu46E/QTRn+MjpN/JdspfkCjGpFtLjAiqFWAFWhrNVIJB5ejGhlg5voQ1hBBhBAYGUjHdriI/DCGCKKlq0jHyowq01m6LVCrBkCaIQEwUO6vGV0kVY1lXPA1ESBVrS4dNGI8tHuvVBKMITDjVtKzrRABW1IvRBaS8S2qMbErv8RDddwMViDW8cZz9NQllXdaFEwJY4V1YusZOgZLpIgGNZ4MOPubsVsJnrXZ2nRC6yhEiaUBOuRc5rubF2PE7lFqE0vvvCt4JfFXed61rWdey8mbrZWNchWMrJ411C4fICpfZM7wT8HBCd3gcv7zHvAxjvmPZOz+ICUX4e3HU7ulcQ1hDWENYQ1hDWENYQ1hDWENYQ1hDWENYQ1hDWENYQ1hDWENYQ1hDWENYQ1hDWENYQ1hDWENYQ1hD+Idz/H83OppKF5RRigAAAABJRU5ErkJggg==;clipPath=inset(17.65% 23.33% 21.57% 17.11%);" vertex="1" parent="3gMO2fTf6Yk1133USG36-19">
          <mxGeometry x="226" y="72.78125" width="78.028125" height="72.1875" as="geometry" />
        </mxCell>
        <mxCell id="3gMO2fTf6Yk1133USG36-12" value="" style="shape=image;html=1;verticalAlign=top;verticalLabelPosition=bottom;labelBackgroundColor=#ffffff;imageAspect=0;aspect=fixed;image=https://cdn3.iconfinder.com/data/icons/document-icons-2/30/647702-excel-128.png;clipPath=inset(0% 0% 0% 0%);" vertex="1" parent="3gMO2fTf6Yk1133USG36-19">
          <mxGeometry x="366" y="72.7775" width="75" height="75" as="geometry" />
        </mxCell>
        <mxCell id="3gMO2fTf6Yk1133USG36-28" value="&lt;b&gt;&lt;font style=&quot;font-size: 13px;&quot;&gt;Raw Data (Excel)&lt;/font&gt;&lt;/b&gt;" style="text;html=1;align=center;verticalAlign=middle;whiteSpace=wrap;rounded=0;" vertex="1" parent="3gMO2fTf6Yk1133USG36-19">
          <mxGeometry x="361" y="39.3125" width="80" height="31.875" as="geometry" />
        </mxCell>
        <mxCell id="3gMO2fTf6Yk1133USG36-29" value="&lt;b&gt;&lt;font style=&quot;font-size: 14px;&quot;&gt;Selenium&lt;/font&gt;&lt;/b&gt;" style="text;html=1;align=center;verticalAlign=middle;whiteSpace=wrap;rounded=0;" vertex="1" parent="3gMO2fTf6Yk1133USG36-19">
          <mxGeometry x="224.03" y="40.90625" width="80" height="31.875" as="geometry" />
        </mxCell>
        <mxCell id="3gMO2fTf6Yk1133USG36-43" style="edgeStyle=orthogonalEdgeStyle;rounded=0;orthogonalLoop=1;jettySize=auto;html=1;entryX=0;entryY=0.5;entryDx=0;entryDy=0;" edge="1" parent="3gMO2fTf6Yk1133USG36-19">
          <mxGeometry relative="1" as="geometry">
            <mxPoint x="304" y="108.19" as="sourcePoint" />
            <mxPoint x="360" y="108.19" as="targetPoint" />
          </mxGeometry>
        </mxCell>
        <mxCell id="3gMO2fTf6Yk1133USG36-50" value="" style="rounded=0;whiteSpace=wrap;html=1;glass=0;shadow=0;dashed=1;" vertex="1" parent="1">
          <mxGeometry x="160" y="490" width="500" height="290" as="geometry" />
        </mxCell>
        <mxCell id="3gMO2fTf6Yk1133USG36-51" value="&lt;font style=&quot;font-size: 16px;&quot; color=&quot;#ffffff&quot;&gt;&lt;b style=&quot;&quot;&gt;Machine Learning Layer&lt;/b&gt;&lt;/font&gt;" style="rounded=0;whiteSpace=wrap;html=1;fillColor=#f88e2a;" vertex="1" parent="1">
          <mxGeometry x="160" y="490" width="190" height="40" as="geometry" />
        </mxCell>
        <mxCell id="3gMO2fTf6Yk1133USG36-78" style="edgeStyle=orthogonalEdgeStyle;rounded=0;orthogonalLoop=1;jettySize=auto;html=1;entryX=0.5;entryY=0;entryDx=0;entryDy=0;" edge="1" parent="1" source="3gMO2fTf6Yk1133USG36-52" target="3gMO2fTf6Yk1133USG36-77">
          <mxGeometry relative="1" as="geometry" />
        </mxCell>
        <mxCell id="3gMO2fTf6Yk1133USG36-52" value="" style="rounded=1;whiteSpace=wrap;html=1;" vertex="1" parent="1">
          <mxGeometry x="190" y="550" width="440" height="120" as="geometry" />
        </mxCell>
        <mxCell id="3gMO2fTf6Yk1133USG36-53" value="&lt;font style=&quot;font-size: 16px;&quot; color=&quot;#ffffff&quot;&gt;&lt;b style=&quot;&quot;&gt;Models&lt;/b&gt;&lt;/font&gt;" style="rounded=0;whiteSpace=wrap;html=1;fillColor=#41be43;" vertex="1" parent="1">
          <mxGeometry x="377.5" y="530" width="65" height="20" as="geometry" />
        </mxCell>
        <mxCell id="3gMO2fTf6Yk1133USG36-55" value="&lt;b&gt;&lt;font color=&quot;#ffffff&quot; style=&quot;font-size: 13px;&quot;&gt;Random Forest Regressor&lt;/font&gt;&lt;/b&gt;" style="ellipse;whiteSpace=wrap;html=1;fillColor=#66B2FF;" vertex="1" parent="1">
          <mxGeometry x="195" y="560" width="120" height="50" as="geometry" />
        </mxCell>
        <mxCell id="3gMO2fTf6Yk1133USG36-56" value="&lt;font color=&quot;#ffffff&quot; style=&quot;font-size: 13px;&quot;&gt;&lt;b&gt;Neural Networks&lt;/b&gt;&lt;/font&gt;" style="ellipse;whiteSpace=wrap;html=1;fillColor=#66B2FF;" vertex="1" parent="1">
          <mxGeometry x="270" y="610" width="120" height="50" as="geometry" />
        </mxCell>
        <mxCell id="3gMO2fTf6Yk1133USG36-57" value="&lt;font color=&quot;#ffffff&quot; style=&quot;font-size: 13px;&quot;&gt;&lt;b&gt;KNN&lt;/b&gt;&lt;/font&gt;" style="ellipse;whiteSpace=wrap;html=1;fillColor=#66B2FF;" vertex="1" parent="1">
          <mxGeometry x="430" y="610" width="120" height="50" as="geometry" />
        </mxCell>
        <mxCell id="3gMO2fTf6Yk1133USG36-58" value="&lt;b&gt;&lt;font color=&quot;#ffffff&quot; style=&quot;font-size: 13px;&quot;&gt;Logistic Regression&lt;/font&gt;&lt;/b&gt;" style="ellipse;whiteSpace=wrap;html=1;fillColor=#66B2FF;" vertex="1" parent="1">
          <mxGeometry x="350" y="560" width="120" height="50" as="geometry" />
        </mxCell>
        <mxCell id="3gMO2fTf6Yk1133USG36-59" value="&lt;font color=&quot;#ffffff&quot; style=&quot;font-size: 13px;&quot;&gt;&lt;b&gt;Naive Bayes&lt;/b&gt;&lt;/font&gt;" style="ellipse;whiteSpace=wrap;html=1;fillColor=#66B2FF;" vertex="1" parent="1">
          <mxGeometry x="500" y="560" width="120" height="50" as="geometry" />
        </mxCell>
        <mxCell id="3gMO2fTf6Yk1133USG36-77" value="&lt;font color=&quot;#ffffff&quot; style=&quot;font-size: 13px;&quot;&gt;&lt;b&gt;Model Evaluation (MSE and Accuracy&lt;/b&gt;&lt;/font&gt;" style="rounded=1;whiteSpace=wrap;html=1;fillColor=#B869EC;" vertex="1" parent="1">
          <mxGeometry x="340" y="710" width="140" height="60" as="geometry" />
        </mxCell>
        <mxCell id="3gMO2fTf6Yk1133USG36-79" value="" style="group" vertex="1" connectable="0" parent="1">
          <mxGeometry x="160" y="280" width="500" height="170" as="geometry" />
        </mxCell>
        <mxCell id="3gMO2fTf6Yk1133USG36-16" value="" style="rounded=0;whiteSpace=wrap;html=1;glass=0;shadow=0;dashed=1;" vertex="1" parent="3gMO2fTf6Yk1133USG36-79">
          <mxGeometry width="500" height="170" as="geometry" />
        </mxCell>
        <mxCell id="3gMO2fTf6Yk1133USG36-21" value="&lt;font style=&quot;font-size: 16px;&quot; color=&quot;#ffffff&quot;&gt;&lt;b style=&quot;&quot;&gt;Data Processing Layer&lt;/b&gt;&lt;/font&gt;" style="rounded=0;whiteSpace=wrap;html=1;fillColor=#f88e2a;" vertex="1" parent="3gMO2fTf6Yk1133USG36-79">
          <mxGeometry width="190" height="40" as="geometry" />
        </mxCell>
        <mxCell id="3gMO2fTf6Yk1133USG36-24" value="&lt;font color=&quot;#ffffff&quot; style=&quot;font-size: 13px;&quot;&gt;&lt;b&gt;Data Cleaning and Transformation (Pandas, Numpy)&lt;/b&gt;&lt;/font&gt;" style="rounded=1;whiteSpace=wrap;html=1;fillColor=#b869ec;" vertex="1" parent="3gMO2fTf6Yk1133USG36-79">
          <mxGeometry x="190" y="80" width="120" height="75" as="geometry" />
        </mxCell>
        <mxCell id="3gMO2fTf6Yk1133USG36-40" value="&lt;b&gt;&lt;font style=&quot;font-size: 13px;&quot;&gt;Raw Data (Excel)&lt;/font&gt;&lt;/b&gt;" style="text;html=1;align=center;verticalAlign=middle;whiteSpace=wrap;rounded=0;" vertex="1" parent="3gMO2fTf6Yk1133USG36-79">
          <mxGeometry x="30" y="53.1225" width="80" height="31.875" as="geometry" />
        </mxCell>
        <mxCell id="3gMO2fTf6Yk1133USG36-41" value="" style="shape=image;html=1;verticalAlign=top;verticalLabelPosition=bottom;labelBackgroundColor=#ffffff;imageAspect=0;aspect=fixed;image=https://cdn3.iconfinder.com/data/icons/document-icons-2/30/647702-excel-128.png;clipPath=inset(0% 0% 0% 0%);" vertex="1" parent="3gMO2fTf6Yk1133USG36-79">
          <mxGeometry x="30" y="84.9975" width="75" height="75" as="geometry" />
        </mxCell>
        <mxCell id="3gMO2fTf6Yk1133USG36-44" value="" style="shape=image;html=1;verticalAlign=top;verticalLabelPosition=bottom;labelBackgroundColor=#ffffff;imageAspect=0;aspect=fixed;image=https://cdn3.iconfinder.com/data/icons/document-icons-2/30/647702-excel-128.png;clipPath=inset(0% 0% 0% 0%);" vertex="1" parent="3gMO2fTf6Yk1133USG36-79">
          <mxGeometry x="380" y="84.9975" width="75" height="75" as="geometry" />
        </mxCell>
        <mxCell id="3gMO2fTf6Yk1133USG36-46" style="edgeStyle=orthogonalEdgeStyle;rounded=0;orthogonalLoop=1;jettySize=auto;html=1;entryX=0;entryY=0.5;entryDx=0;entryDy=0;" edge="1" parent="3gMO2fTf6Yk1133USG36-79">
          <mxGeometry relative="1" as="geometry">
            <mxPoint x="120" y="122" as="sourcePoint" />
            <mxPoint x="176" y="122" as="targetPoint" />
          </mxGeometry>
        </mxCell>
        <mxCell id="3gMO2fTf6Yk1133USG36-47" style="edgeStyle=orthogonalEdgeStyle;rounded=0;orthogonalLoop=1;jettySize=auto;html=1;entryX=0;entryY=0.5;entryDx=0;entryDy=0;" edge="1" parent="3gMO2fTf6Yk1133USG36-79">
          <mxGeometry relative="1" as="geometry">
            <mxPoint x="320" y="122" as="sourcePoint" />
            <mxPoint x="376" y="122" as="targetPoint" />
          </mxGeometry>
        </mxCell>
        <mxCell id="3gMO2fTf6Yk1133USG36-48" value="&lt;b&gt;&lt;font style=&quot;font-size: 13px;&quot;&gt;Processed Data (Structured Dataframe)&lt;/font&gt;&lt;/b&gt;" style="text;html=1;align=center;verticalAlign=middle;whiteSpace=wrap;rounded=0;" vertex="1" parent="3gMO2fTf6Yk1133USG36-79">
          <mxGeometry x="335" y="48.120000000000005" width="165" height="31.88" as="geometry" />
        </mxCell>
        <mxCell id="3gMO2fTf6Yk1133USG36-80" style="edgeStyle=orthogonalEdgeStyle;rounded=0;orthogonalLoop=1;jettySize=auto;html=1;entryX=0.5;entryY=0;entryDx=0;entryDy=0;" edge="1" parent="1" source="3gMO2fTf6Yk1133USG36-4" target="3gMO2fTf6Yk1133USG36-16">
          <mxGeometry relative="1" as="geometry" />
        </mxCell>
        <mxCell id="3gMO2fTf6Yk1133USG36-81" style="edgeStyle=orthogonalEdgeStyle;rounded=0;orthogonalLoop=1;jettySize=auto;html=1;entryX=0.5;entryY=0;entryDx=0;entryDy=0;" edge="1" parent="1" source="3gMO2fTf6Yk1133USG36-16" target="3gMO2fTf6Yk1133USG36-50">
          <mxGeometry relative="1" as="geometry" />
        </mxCell>
      </root>
    </mxGraphModel>
  </diagram>
</mxfile>
